<?xml version="1.0" standalone="no"?>
<!DOCTYPE svg PUBLIC "-//W3C//DTD SVG 20010904//EN"
 "http://www.w3.org/TR/2001/REC-SVG-20010904/DTD/svg10.dtd">
<svg version="1.0" xmlns="http://www.w3.org/2000/svg"
 width="512.000000pt" height="512.000000pt" viewBox="0 0 512.000000 512.000000"
 preserveAspectRatio="xMidYMid meet">
<metadata>
Created by potrace 1.11, written by Peter Selinger 2001-2013
</metadata>
<g transform="translate(0.000000,512.000000) scale(0.100000,-0.100000)"
fill="#000000" stroke="none">
<path d="M2379 5096 c-2 -2 -33 -7 -69 -10 -125 -11 -147 -14 -256 -36 -414
-83 -828 -285 -1144 -556 -150 -128 -339 -340 -451 -504 -216 -316 -368 -711
-415 -1080 -3 -25 -8 -56 -11 -70 -9 -47 -11 -435 -2 -520 8 -74 25 -181 44
-285 33 -175 136 -459 233 -645 280 -534 768 -972 1321 -1185 89 -34 300 -101
349 -110 15 -3 38 -7 52 -10 14 -3 52 -10 85 -16 33 -5 70 -12 82 -14 155 -27
573 -27 711 0 11 2 37 6 58 9 430 66 884 275 1224 564 74 63 234 223 298 297
59 68 192 250 192 263 0 5 7 15 15 22 43 36 199 361 259 541 65 195 105 374
124 554 9 90 9 429 -1 520 -50 482 -240 944 -544 1325 -66 82 -250 274 -324
337 -187 160 -412 300 -663 413 -46 20 -298 107 -334 115 -9 2 -46 10 -82 19
-36 8 -83 18 -105 21 -22 3 -46 8 -54 11 -8 3 -40 7 -70 10 -31 3 -63 8 -71
11 -16 6 -445 14 -451 9z"/>
</g>
</svg>
